# xmcd CD database file
#
# Track frame offsets:
#	150
#	50367
#	84742
#	121902
#	150620
#	200312
#	233615
#
# Disc length: 3528 seconds
#
# Revision: 0
# Processed by: cddbd v1.5.2PL0 Copyright (c) Steve Scherf et al.
# Submitted via: CDex 1.70beta3
#
DISCID=4d0dc607
DTITLE=Takeuchi Nao - Solo
DYEAR=2003
DGENRE=Jazz
TTITLE0=Love Me Tender
TTITLE1=Barbados
TTITLE2=I Should Care
TTITLE3=Epistorophy
TTITLE4=五つ木の子守歌
TTITLE5=When the Saints Go Marchi' in
TTITLE6=Hymn to Freedom
EXTD=YEAR: 2003
EXTT0=
EXTT1=
EXTT2=
EXTT3=
EXTT4=
EXTT5=
EXTT6=
PLAYORDER=
